<?xml version="1.0" encoding="UTF-8" standalone="no"?>
<svg
   class="w-5 h-5 fill-current"
   role="img"
   viewBox="0 0 256 256"
   version="1.1"
   id="svg978"
   sodipodi:docname="github.svg"
   inkscape:version="1.2.2 (b0a84865, 2022-12-01)"
   xml:space="preserve"
   xmlns:inkscape="http://www.inkscape.org/namespaces/inkscape"
   xmlns:sodipodi="http://sodipodi.sourceforge.net/DTD/sodipodi-0.dtd"
   xmlns="http://www.w3.org/2000/svg"
   xmlns:svg="http://www.w3.org/2000/svg"><defs
     id="defs982" /><sodipodi:namedview
     id="namedview980"
     pagecolor="#ffffff"
     bordercolor="#000000"
     borderopacity="0.25"
     inkscape:showpageshadow="2"
     inkscape:pageopacity="0.0"
     inkscape:pagecheckerboard="0"
     inkscape:deskcolor="#d1d1d1"
     showgrid="false"
     inkscape:zoom="2.6074563"
     inkscape:cx="101.43986"
     inkscape:cy="129.82001"
     inkscape:window-width="1471"
     inkscape:window-height="917"
     inkscape:window-x="915"
     inkscape:window-y="272"
     inkscape:window-maximized="0"
     inkscape:current-layer="svg978"
     showguides="true"><sodipodi:guide
       position="125,131"
       orientation="0,1"
       id="guide6945"
       inkscape:locked="false"
       inkscape:label=""
       inkscape:color="rgb(0,134,229)" /><sodipodi:guide
       position="125,131"
       orientation="-1,0"
       id="guide9125"
       inkscape:locked="false"
       inkscape:label=""
       inkscape:color="rgb(0,134,229)" /></sodipodi:namedview><g
     id="g976"
     style="fill:#374151;fill-opacity:1"><path
       d="M 237.0334,0.01825771 H 18.889525 C 8.5795947,-0.0980924 0.12482704,8.1605623 -0.001,18.470607 V 237.52409 c 0.12151905,10.31501 8.5756063,18.58184 18.890525,18.47361 H 237.0334 c 10.33533,0.12812 18.82252,-8.13824 18.9656,-18.47361 V 18.454802 C 255.85162,8.1243898 247.36374,-0.13379287 237.0334,7.9080706e-4"
       id="path974"
       style="fill:#374151;fill-opacity:1"
       sodipodi:nodetypes="ccccccccc" /></g><path
     fill-rule="evenodd"
     clip-rule="evenodd"
     d="m 128,22.447272 c -59.79297,0 -108.222572,48.429566 -108.222572,108.222548 0,47.88849 30.978712,88.33668 73.997187,102.67617 5.411127,0.94694 7.440295,-2.29973 7.440295,-5.14057 0,-2.5703 -0.13528,-11.09282 -0.13528,-20.15647 -27.190916,5.0053 -34.225383,-6.62862 -36.389835,-12.71615 -1.217504,-3.1114 -6.493354,-12.71615 -11.092813,-15.28643 -3.787792,-2.02918 -9.19892,-7.03448 -0.13528,-7.16975 8.522527,-0.13528 14.610047,7.84613 16.639221,11.09281 9.740032,16.36867 25.297027,11.76921 31.519827,8.92837 0.94694,-7.03447 3.78779,-11.76921 6.89918,-14.47477 -24.079516,-2.70556 -49.241266,-12.03977 -49.241266,-53.4349 0,-11.7692 4.193626,-21.50924 11.092815,-29.084827 -1.082225,-2.705559 -4.870017,-13.798372 1.082225,-28.678982 0,0 9.063642,-2.840838 29.761206,11.092813 8.6578,-2.434999 17.85672,-3.652499 27.05564,-3.652499 9.19892,0 18.39784,1.2175 27.05564,3.652499 20.69758,-14.068931 29.76122,-11.092813 29.76122,-11.092813 5.95223,14.88061 2.16446,25.973423 1.08222,28.678982 6.89919,7.575587 11.09281,17.180347 11.09281,29.084827 0,41.53041 -25.29702,50.72934 -49.37655,53.4349 3.92307,3.38196 7.30503,9.87531 7.30503,20.02117 0,14.47477 -0.13528,26.1087 -0.13528,29.76122 0,2.84084 2.02917,6.22279 7.4403,5.14057 a 108.40295,108.40295 0 0 0 73.72663,-102.67617 c 0,-59.792982 -48.4296,-108.222548 -108.22258,-108.222548 z"
     fill="currentColor"
     id="path415"
     style="stroke-width:9.01855;fill:#ffffff;fill-opacity:1" /></svg>
