<?xml version="1.0" encoding="UTF-8" standalone="no"?>
<svg
   class="w-5 h-5 fill-current"
   role="img"
   viewBox="0 0 256 256"
   version="1.1"
   id="svg978"
   sodipodi:docname="gitlab.svg"
   inkscape:version="1.2.2 (b0a84865, 2022-12-01)"
   xml:space="preserve"
   xmlns:inkscape="http://www.inkscape.org/namespaces/inkscape"
   xmlns:sodipodi="http://sodipodi.sourceforge.net/DTD/sodipodi-0.dtd"
   xmlns="http://www.w3.org/2000/svg"
   xmlns:svg="http://www.w3.org/2000/svg"><defs
     id="defs982" /><sodipodi:namedview
     id="namedview980"
     pagecolor="#ffffff"
     bordercolor="#000000"
     borderopacity="0.25"
     inkscape:showpageshadow="2"
     inkscape:pageopacity="0.0"
     inkscape:pagecheckerboard="0"
     inkscape:deskcolor="#d1d1d1"
     showgrid="false"
     inkscape:zoom="2.6074563"
     inkscape:cx="110.26072"
     inkscape:cy="129.82001"
     inkscape:window-width="1471"
     inkscape:window-height="917"
     inkscape:window-x="613"
     inkscape:window-y="141"
     inkscape:window-maximized="0"
     inkscape:current-layer="svg978"
     showguides="true"><sodipodi:guide
       position="125,131"
       orientation="0,1"
       id="guide6945"
       inkscape:locked="false"
       inkscape:label=""
       inkscape:color="rgb(0,134,229)" /><sodipodi:guide
       position="125,131"
       orientation="-1,0"
       id="guide9125"
       inkscape:locked="false"
       inkscape:label=""
       inkscape:color="rgb(0,134,229)" /></sodipodi:namedview><g
     id="g976"
     style="fill:#f97316;fill-opacity:1"><path
       d="M 237.0334,0.01825771 H 18.889525 C 8.5795947,-0.0980924 0.12482704,8.1605623 -0.001,18.470607 V 237.52409 c 0.12151905,10.31501 8.5756063,18.58184 18.890525,18.47361 H 237.0334 c 10.33533,0.12812 18.82252,-8.13824 18.9656,-18.47361 V 18.454802 C 255.85162,8.1243898 247.36374,-0.13379287 237.0334,7.9080706e-4"
       id="path974"
       style="fill:#f97316;fill-opacity:1"
       sodipodi:nodetypes="ccccccccc" /></g><path
     d="m 233.60912,106.08 -0.2986,-0.76783 -29.73208,-77.542292 c -0.5972,-1.522864 -1.66363,-2.811109 -3.07132,-3.685587 -1.02378,-0.661183 -2.17553,-1.072822 -3.41259,-1.198664 -1.23704,-0.125816 -2.43146,0.03538 -3.5832,0.473495 -1.15175,0.435104 -2.17552,1.134678 -3.02866,2.039021 -0.81049,0.90433 -1.40769,1.99209 -1.74895,3.173687 L 168.68483,89.998221 H 87.42282 L 67.331273,28.57183 c -0.341257,-1.181597 -0.938458,-2.265086 -1.748946,-3.169431 -0.853143,-0.904328 -1.876918,-1.599647 -3.028662,-2.03475 -1.12615,-0.437233 -2.354678,-0.599326 -3.574675,-0.474775 -1.219997,0.124088 -2.393071,0.530234 -3.429641,1.191417 -1.382093,0.874478 -2.452791,2.162723 -3.054256,3.685587 L 22.783058,105.31217 22.47422,106.08 c -4.277239,11.17618 -4.804483,23.46147 -1.501534,34.97891 3.304655,11.47479 10.257782,21.62721 19.813,28.83629 l 0.115174,0.0853 0.251679,0.17063 45.203859,33.91248 22.437702,16.93493 13.6503,10.32305 c 1.57833,0.81048 3.54054,1.83425 5.54544,1.83425 2.00489,0 3.96712,-1.02377 5.54544,-1.83425 l 13.65031,-10.32305 22.4377,-16.93493 45.51526,-34.08311 0.12797,-0.12798 c 9.55522,-7.20906 16.50834,-17.31884 19.45169,-28.79362 3.66852,-11.51744 3.15664,-23.80273 -1.10909,-34.97891 z"
     id="path12535"
     style="fill:#ffffff;fill-opacity:1;stroke-width:0.426572" /></svg>
