<?xml version="1.0" encoding="UTF-8" standalone="no"?>
<svg
   class="w-5 h-5 fill-current"
   role="img"
   viewBox="0 0 256 256"
   version="1.1"
   id="svg978"
   sodipodi:docname="twitter.svg"
   inkscape:version="1.2.2 (b0a84865, 2022-12-01)"
   xml:space="preserve"
   xmlns:inkscape="http://www.inkscape.org/namespaces/inkscape"
   xmlns:sodipodi="http://sodipodi.sourceforge.net/DTD/sodipodi-0.dtd"
   xmlns="http://www.w3.org/2000/svg"
   xmlns:svg="http://www.w3.org/2000/svg"><defs
     id="defs982" /><sodipodi:namedview
     id="namedview980"
     pagecolor="#ffffff"
     bordercolor="#000000"
     borderopacity="0.25"
     inkscape:showpageshadow="2"
     inkscape:pageopacity="0.0"
     inkscape:pagecheckerboard="0"
     inkscape:deskcolor="#d1d1d1"
     showgrid="false"
     inkscape:zoom="2.6074563"
     inkscape:cx="101.43986"
     inkscape:cy="129.82001"
     inkscape:window-width="1471"
     inkscape:window-height="917"
     inkscape:window-x="915"
     inkscape:window-y="272"
     inkscape:window-maximized="0"
     inkscape:current-layer="svg978"
     showguides="true"><sodipodi:guide
       position="125,131"
       orientation="0,1"
       id="guide6945"
       inkscape:locked="false"
       inkscape:label=""
       inkscape:color="rgb(0,134,229)" /><sodipodi:guide
       position="125,131"
       orientation="-1,0"
       id="guide9125"
       inkscape:locked="false"
       inkscape:label=""
       inkscape:color="rgb(0,134,229)" /></sodipodi:namedview><g
     id="g976"
     style="fill:#60a5fa;fill-opacity:1"><path
       d="M 237.0334,0.01825771 H 18.889525 C 8.5795947,-0.0980924 0.12482704,8.1605623 -0.001,18.470607 V 237.52409 c 0.12151905,10.31501 8.5756063,18.58184 18.890525,18.47361 H 237.0334 c 10.33533,0.12812 18.82252,-8.13824 18.9656,-18.47361 V 18.454802 C 255.85162,8.1243898 247.36374,-0.13379287 237.0334,7.9080706e-4"
       id="path974"
       style="fill:#60a5fa;fill-opacity:1"
       sodipodi:nodetypes="ccccccccc" /></g><path
     d="m 234.11934,62.038295 a 88.780489,88.780489 0 0 1 -25.08049,6.880486 44.017366,44.017366 0 0 0 19.20321,-24.174927 c -8.44302,4.927319 -17.80048,8.51405 -27.76166,10.51161 A 43.68,43.68 0 0 0 126.04684,95.046885 C 89.73562,93.333415 57.570448,75.888051 36.023422,49.538001 a 42.809951,42.809951 0 0 0 -5.912768,21.973172 c 0,15.181462 7.723893,28.525167 19.425169,36.364477 A 43.537951,43.537951 0 0 1 29.75552,102.40678 v 0.53268 a 43.706635,43.706635 0 0 0 35.032786,42.85433 44.354733,44.354733 0 0 1 -19.63825,0.75464 43.822048,43.822048 0 0 0 40.874544,30.3363 87.599708,87.599708 0 0 1 -54.173848,18.6883 c -3.462452,0 -6.916006,-0.2042 -10.387322,-0.59484 a 124.24829,124.24829 0 0 0 67.09141,19.61161 c 80.37299,0 124.27494,-66.54986 124.27494,-124.159505 0,-1.86439 0,-3.728781 -0.13321,-5.593172 a 88.203416,88.203416 0 0 0 21.84,-22.621268 z"
     id="path415"
     style="fill:#ffffff;fill-opacity:1;stroke-width:8.87805" /></svg>
